<?xml version="1.0" standalone="no"?>
<!DOCTYPE svg PUBLIC "-//W3C//DTD SVG 20010904//EN"
 "http://www.w3.org/TR/2001/REC-SVG-20010904/DTD/svg10.dtd">
<svg version="1.0" xmlns="http://www.w3.org/2000/svg"
 width="1023.000000pt" height="1023.000000pt" viewBox="0 0 1023.000000 1023.000000"
 preserveAspectRatio="xMidYMid meet">
<metadata>
Created by potrace 1.11, written by Peter Selinger 2001-2013
</metadata>
<g transform="translate(0.000000,1023.000000) scale(0.100000,-0.100000)"
fill="#000000" stroke="none">
<path d="M4949 10226 c-2 -2 -56 -7 -119 -10 -63 -4 -122 -9 -130 -11 -8 -2
-46 -6 -83 -10 -37 -3 -76 -8 -85 -10 -9 -1 -39 -6 -67 -9 -27 -4 -61 -9 -75
-11 -28 -6 -33 -7 -155 -30 -252 -47 -637 -156 -830 -235 -11 -5 -60 -24 -110
-44 -711 -279 -1414 -778 -1931 -1371 -331 -380 -608 -809 -811 -1260 -46
-101 -65 -148 -64 -153 1 -1 -6 -16 -15 -34 -59 -114 -211 -596 -250 -793 -2
-11 -6 -31 -10 -45 -37 -160 -78 -425 -98 -640 -27 -282 -23 -699 8 -965 3
-27 8 -70 11 -95 9 -90 15 -136 20 -160 3 -14 7 -38 9 -55 28 -211 133 -616
234 -900 89 -252 293 -689 395 -848 20 -31 37 -60 37 -63 0 -13 212 -326 290
-429 71 -94 199 -251 295 -360 52 -60 280 -287 353 -353 42 -37 85 -76 98 -87
103 -93 434 -345 452 -345 5 0 15 -7 22 -15 14 -17 219 -146 345 -217 250
-142 476 -246 787 -364 199 -75 624 -190 813 -220 17 -3 37 -6 45 -8 8 -1 38
-6 65 -10 28 -4 61 -10 75 -12 14 -2 63 -8 110 -14 47 -6 99 -12 115 -15 192
-26 840 -27 1070 0 17 2 59 6 95 10 36 3 76 8 90 10 14 2 45 7 70 10 25 3 70
10 100 15 30 5 71 11 91 14 20 3 92 17 160 32 68 14 131 27 139 29 8 2 35 8
60 15 25 7 50 13 55 15 128 29 501 150 557 180 14 8 31 15 38 15 6 0 30 9 53
19 23 10 89 40 147 66 666 299 1282 791 1712 1370 4 6 18 24 32 40 13 17 65
92 116 168 248 372 433 759 579 1210 49 152 134 479 146 562 4 22 10 56 15 75
5 19 11 53 15 75 3 23 7 52 10 65 2 13 9 59 15 102 6 43 13 92 15 110 5 30 11
91 20 178 5 50 16 203 21 285 5 98 5 526 -1 605 -2 36 -7 106 -10 155 -9 137
-18 222 -36 350 -6 39 -13 90 -15 115 -3 25 -10 61 -15 81 l-9 35 -2410 0
-2410 0 0 -983 c0 -779 3 -983 13 -984 6 0 627 -1 1380 -1 792 -1 1367 -5
1367 -10 0 -18 -33 -154 -55 -233 -64 -220 -170 -449 -296 -640 -40 -60 -75
-112 -79 -115 -3 -3 -27 -33 -53 -67 -59 -77 -240 -263 -327 -335 -250 -207
-551 -373 -870 -478 -105 -35 -323 -92 -395 -104 -66 -11 -163 -25 -210 -31
-27 -4 -61 -8 -74 -10 -170 -28 -657 -22 -821 10 -14 2 -41 7 -60 10 -19 3
-69 13 -110 21 -41 9 -83 18 -94 20 -71 14 -270 77 -396 126 -185 73 -533 262
-650 355 -8 6 -50 39 -93 73 -114 89 -123 97 -221 190 -486 459 -800 1031
-937 1708 -9 47 -13 74 -33 237 -14 110 -15 554 -2 640 10 66 15 98 21 150 9
73 60 297 90 395 14 47 27 92 29 100 17 68 119 310 188 445 370 727 1009 1279
1773 1534 83 27 257 74 315 84 14 3 63 12 110 20 279 51 647 55 947 12 59 -9
116 -18 125 -21 10 -3 30 -7 45 -10 16 -3 46 -10 68 -16 22 -5 48 -12 58 -14
35 -6 251 -77 311 -101 219 -89 420 -199 602 -329 79 -56 227 -177 273 -222
l24 -24 731 731 c721 721 730 730 710 748 -12 10 -54 48 -95 85 -471 423
-1104 784 -1734 988 -338 109 -703 186 -1030 216 -38 3 -86 8 -105 10 -42 6
-696 14 -701 10z"/>
</g>
</svg>
